<svg height='100px' width='100px'  fill="#000000" xmlns="http://www.w3.org/2000/svg" xmlns:xlink="http://www.w3.org/1999/xlink" version="1.1" x="0px" y="0px" viewBox="0 0 100 100" enable-background="new 0 0 100 100" xml:space="preserve"><path d="M89.453,36.171c-1.48-4.391-10.393-9.302-17.508-12.612c-5.332-7.714-9.603-12.045-12.689-12.864  c-0.484-0.128-1.031-0.194-1.625-0.194c-4.014,0-10.336,3.053-15.818,6.221c-0.233-0.001-0.465-0.003-0.701-0.003  c-10.051,0-16.421,1.107-18.933,3.292c-3.553,3.089-4.687,13.469-5.024,21.358c-0.813,1.811-1.707,3.88-2.565,6.041  c-3.53,8.881-4.788,14.931-3.74,17.984c1.549,4.516,10.98,9.541,18.206,12.814c4.561,6.501,8.283,10.198,11.073,10.982  c0.517,0.146,1.106,0.221,1.751,0.221c4.388,0,11.494-3.494,17.277-6.829c9.676-0.097,15.825-1.229,18.274-3.381  c2.912-2.562,4.158-10.062,4.674-17.038c1.028-2.188,2.309-5.021,3.521-8.027C89.199,45.273,90.486,39.23,89.453,36.171z   M76.111,77.7c-1.746,1.534-6.457,2.499-13.454,2.795c0.995-0.613,1.905-1.188,2.698-1.7c6.432-3.439,11.602-8.934,14.636-15.602  C79.445,69.586,78.314,75.764,76.111,77.7z M12.742,64.745c-1.053-3.065,1.167-10.222,3.824-16.881  c-0.026,0.535-0.041,1.072-0.041,1.614c0,8.002,2.843,15.352,7.572,21.092c0.822,1.355,1.749,2.842,2.741,4.361  C20.368,71.775,13.813,67.865,12.742,64.745z M58.743,12.628c2.551,0.676,6.146,4.662,9.582,9.308  c-0.021-0.009-0.041-0.018-0.062-0.027c-5.296-3.568-11.668-5.653-18.52-5.653c-1.092,0-2.171,0.057-3.237,0.16  C50.676,14.231,54.85,12.5,57.63,12.5C58.052,12.5,58.426,12.543,58.743,12.628z M80.967,49.478c0,2.836-0.387,5.579-1.097,8.19  c-0.872-2.707-2.576-6.797-5.837-11.398c-3.459-4.878-9.205-10.949-18.432-16.289c-0.115-0.104-0.244-0.19-0.396-0.232  c-4.191-2.39-9.105-4.619-14.831-6.526c3.311-3.316,6.014-4.73,6.097-4.771c0.014-0.007,0.021-0.02,0.035-0.027  c1.064-0.11,2.145-0.168,3.238-0.168C66.961,18.256,80.967,32.261,80.967,49.478z M49.745,80.701c-7.599,0-14.57-2.73-19.99-7.262  c-0.002-0.015,0.003-0.027,0-0.043c-0.032-0.156-0.053-0.306-0.084-0.461c5.549-0.461,31-3.043,48.86-12.604  c0.088,0.36,0.145,0.627,0.176,0.791C74.081,72.586,62.848,80.701,49.745,80.701z M18.524,49.478c0-14.407,9.81-26.56,23.1-30.144  c-2.389,1.926-5.503,4.983-8.344,9.509c-8.485,13.517-8.112,30.01-5.98,42.305C21.873,65.529,18.524,57.891,18.524,49.478z   M51.792,30.172c-11.042,1.792-17.063,4.364-19.917,5.941c2.029-4.86,4.583-8.568,6.99-11.291  C43.743,26.394,48.024,28.209,51.792,30.172z M28.369,50.098c6.265,12.451,14.571,16.712,20.02,18.136  c-9.096,1.814-16.596,2.525-19.076,2.726C27.903,62.943,27.724,56.021,28.369,50.098z M31.048,39.017  c0.028-0.024,1.552-1.311,5.566-2.896c-2.007,2.888-4.083,8.137-3.985,17.436c-1.312-2.029-2.574-4.372-3.744-7.06  c0.463-2.646,1.088-5.072,1.831-7.291C30.834,39.165,30.948,39.104,31.048,39.017z M51.71,66.881  c-2.844-0.307-8.399-1.633-13.969-7.027c3.76-0.39,12.813-2.056,22.417-9.135C58.896,56.123,56.43,62.082,51.71,66.881z   M46.578,47.528c-0.813,0.916-1.719,1.535-2.56,1.948c-1.278-1.478-1.599-2.688-1.647-3.417  C43.873,46.397,45.398,46.876,46.578,47.528z M48.141,48.778c0.058,0.074,0.117,0.148,0.167,0.225  c-0.138,1.767-0.472,3.656-1.146,5.427c-1.019-0.646-2.345-1.537-3.739-2.562C44.809,51.422,46.617,50.529,48.141,48.778z   M48.086,42.478c0.099,0.658,0.271,2.052,0.302,3.804c-0.039-0.012-0.074-0.036-0.113-0.044c-1.975-1.343-4.801-2.067-7.042-2.45  C43.89,42.803,46.408,42.53,48.086,42.478z M37.963,45.393c0.636,0.047,1.474,0.139,2.413,0.287  c-0.029,0.983,0.221,2.606,1.644,4.502c-0.267,0.058-0.487,0.094-0.64,0.113c-1.693-1.368-3.304-2.845-4.395-4.237  C37.308,45.824,37.633,45.599,37.963,45.393z M35.021,46.738c2.658,3.776,8.367,7.661,10.818,9.223  c-5.478,1.835-9.412,1.999-9.88,2.012c-0.458-0.521-0.915-1.062-1.368-1.646c0.066-0.142,0.11-0.296,0.103-0.464  C34.521,52.258,34.673,49.25,35.021,46.738z M49.201,54.688c1.627-4.664,1.227-9.785,0.943-11.949  c3.347,3.125,5.915,6.314,6.961,7.679C54.359,52.25,51.682,53.637,49.201,54.688z M35.923,44.362  c-0.09-0.201-0.173-0.399-0.227-0.591c-0.018-0.064-0.058-0.114-0.087-0.171c1.046-4.299,2.707-6.633,3.9-7.822  c2.802,0.932,5.561,2.698,8.051,4.71C44.691,40.623,40.092,41.375,35.923,44.362z M54.402,66.914  c8.865-10.166,9.221-23.904,8.994-29.069c9.412,7.897,13.164,16.221,14.566,20.518C70.797,62.268,62.312,65.012,54.402,66.914z   M61.275,36.153c0.078,0.816,0.459,5.598-0.53,11.6c-0.009,0.006-0.019,0.007-0.027,0.014c-0.657,0.529-1.313,1.025-1.968,1.5  c-1.924-2.535-9.067-11.409-17.14-14.827c3.352-0.964,7.644-1.918,13.066-2.682C57.109,33.175,59.305,34.648,61.275,36.153z   M23.492,21.519c1.755-1.526,6.504-2.47,13.534-2.727c-7.711,3.209-13.958,9.243-17.45,16.803  C20.165,29.354,21.325,23.403,23.492,21.519z M30.163,76.294c5.496,4.022,12.264,6.407,19.582,6.407  c2.101,0,4.153-0.205,6.147-0.579c-5.041,2.769-10.575,5.29-14.013,5.29c-0.461,0-0.868-0.049-1.209-0.146  C37.86,86.477,33.832,81.613,30.163,76.294z M82.415,55.473c0.356-1.945,0.552-3.945,0.552-5.995c0-8.769-3.421-16.749-8.988-22.692  c6.299,3.144,12.551,6.972,13.58,10.025c1.198,3.548-1.992,12.524-5.175,19.895C82.396,56.283,82.406,55.873,82.415,55.473z"></path></svg>
